<svg width="8" height="7" viewBox="0 0 8 7" fill="none" xmlns="http://www.w3.org/2000/svg">
<path d="M7.65869 1.71413C7.53272 1.86516 7.36477 1.97843 7.36477 2.09169C7.36477 2.20496 7.49073 2.31823 7.6167 2.46926C7.82664 2.65804 8.03658 2.80906 7.9946 2.99784C7.9946 3.18662 7.78465 3.3754 7.57471 3.56419L5.85319 5.11219L5.26535 4.62136L7.02886 3.0356L6.60898 2.65804L6.02114 3.18662L4.42558 1.75189L6.10512 0.317152C6.27307 0.166127 6.525 0.166127 6.69295 0.317152L7.65869 1.18554C7.82664 1.33657 7.82664 1.60086 7.65869 1.71413ZM0.226737 5.56526L4.25763 1.94067L5.8112 3.3754L1.8223 7H0.226737V5.56526ZM0.596236 0L1.48639 0.804207L2.37654 0L2.97278 0.536138L2.07843 1.33657L2.97278 2.137L2.37654 2.67314L1.48639 1.86893L0.596236 2.67314L0 2.137L0.894353 1.33657L0 0.536138L0.596236 0Z" fill="black"/>
</svg>
