<svg width="14" height="16" viewBox="0 0 14 16" fill="none" xmlns="http://www.w3.org/2000/svg">
<path d="M6.55591 0C5.1942 0 3.88827 0.540935 2.9254 1.50381C1.96253 2.46668 1.42159 3.77261 1.42159 5.13432V7.72201C1.4217 7.8358 1.39533 7.94804 1.34458 8.04988L0.0852024 10.5679C0.0236833 10.6909 -0.00536546 10.8276 0.000815101 10.965C0.00699566 11.1024 0.0482003 11.236 0.120516 11.353C0.192831 11.47 0.293855 11.5665 0.413995 11.6335C0.534134 11.7005 0.669398 11.7356 0.806941 11.7356H12.3049C12.4424 11.7356 12.5777 11.7005 12.6978 11.6335C12.818 11.5665 12.919 11.47 12.9913 11.353C13.0636 11.236 13.1048 11.1024 13.111 10.965C13.1172 10.8276 13.0881 10.6909 13.0266 10.5679L11.768 8.04988C11.717 7.9481 11.6903 7.83585 11.6902 7.72201V5.13432C11.6902 3.77261 11.1493 2.46668 10.1864 1.50381C9.22355 0.540935 7.91762 0 6.55591 0ZM6.55591 13.936C6.10068 13.9362 5.65658 13.7953 5.28481 13.5326C4.91305 13.2698 4.63192 12.8983 4.48018 12.4691H8.63164C8.4799 12.8983 8.19877 13.2698 7.82701 13.5326C7.45524 13.7953 7.01114 13.9362 6.55591 13.936Z" fill="#818181"/>
</svg>
